<svg width="38" height="45" viewBox="0 0 38 45" fill="none" xmlns="http://www.w3.org/2000/svg">
<path d="M20.8998 44.3C20.3998 44.3 19.9748 44.1334 19.6248 43.8C19.2748 43.4667 19.0998 43.0334 19.0998 42.5C19.0998 42 19.2748 41.5834 19.6248 41.25C19.9748 40.9167 20.3998 40.75 20.8998 40.75H33.7498V38.05H29.9998C28.8998 38.05 27.9581 37.6584 27.1748 36.875C26.3915 36.0917 25.9998 35.15 25.9998 34.05V26.25C25.9998 25.15 26.3915 24.2084 27.1748 23.425C27.9581 22.6417 28.8998 22.25 29.9998 22.25H33.7498V19.5C33.7498 15.4334 32.3248 11.9417 29.4748 9.02502C26.6248 6.10836 23.1665 4.65002 19.0998 4.65002C15.0665 4.65002 11.5831 6.10836 8.6498 9.02502C5.71647 11.9417 4.2498 15.4334 4.2498 19.5V22.25H8.0498C9.11647 22.25 10.0415 22.6417 10.8248 23.425C11.6081 24.2084 11.9998 25.15 11.9998 26.25V34.05C11.9998 35.15 11.6081 36.0917 10.8248 36.875C10.0415 37.6584 9.11647 38.05 8.0498 38.05H4.2498C3.18314 38.05 2.25814 37.6584 1.4748 36.875C0.691471 36.0917 0.299805 35.15 0.299805 34.05V19.5C0.299805 16.9334 0.791471 14.5 1.7748 12.2C2.75814 9.90002 4.0998 7.89169 5.7998 6.17502C7.4998 4.45836 9.4998 3.10836 11.7998 2.12502C14.0998 1.14169 16.5331 0.650024 19.0998 0.650024C21.6998 0.650024 24.1331 1.14169 26.3998 2.12502C28.6665 3.10836 30.6415 4.45836 32.3248 6.17502C34.0081 7.89169 35.3331 9.89169 36.2998 12.175C37.2665 14.4584 37.7498 16.9 37.7498 19.5V40.35C37.7498 41.45 37.3581 42.3834 36.5748 43.15C35.7915 43.9167 34.8498 44.3 33.7498 44.3H20.8998Z" fill="url(#paint0_linear_34_359)"/>
<defs>
<linearGradient id="paint0_linear_34_359" x1="19.0248" y1="0.650024" x2="19.0248" y2="44.3" gradientUnits="userSpaceOnUse">
<stop stop-color="#72F2EB"/>
<stop offset="1" stop-color="#28BBB3"/>
</linearGradient>
</defs>
</svg>
