<svg width="38" height="32" viewBox="0 0 38 32" fill="none" xmlns="http://www.w3.org/2000/svg">
<path d="M28.2915 24.75V19.3333H22.8748V16H28.2915V10.5833H31.6248V16H37.0415V19.3333H31.6248V24.75H28.2915ZM17.2915 31.7917L12.8332 27.7917C10.4443 25.625 8.43734 23.7292 6.81234 22.1042C5.18734 20.4792 3.86789 18.9861 2.854 17.625C1.84011 16.2639 1.11789 14.9722 0.687337 13.75C0.256782 12.5278 0.0415039 11.2361 0.0415039 9.875C0.0415039 7.09722 0.979004 4.77778 2.854 2.91667C4.729 1.05556 7.0415 0.125 9.7915 0.125C11.2359 0.125 12.604 0.402778 13.8957 0.958333C15.1873 1.51389 16.3193 2.31944 17.2915 3.375C18.2915 2.31944 19.4373 1.51389 20.729 0.958333C22.0207 0.402778 23.3748 0.125 24.7915 0.125C27.3748 0.125 29.5554 0.930556 31.3332 2.54167C33.1109 4.15278 34.1665 6.11111 34.4998 8.41667C33.8054 8.02778 33.0832 7.72917 32.3332 7.52083C31.5832 7.3125 30.8193 7.19444 30.0415 7.16667C27.1526 7.16667 24.6804 8.1875 22.6248 10.2292C20.5693 12.2708 19.5415 14.75 19.5415 17.6667C19.5415 19.3333 19.9234 20.8958 20.6873 22.3542C21.4512 23.8125 22.4998 25.0139 23.8332 25.9583C23.3332 26.4306 22.7359 26.9722 22.0415 27.5833C21.3471 28.1944 20.7221 28.7639 20.1665 29.2917L17.2915 31.7917Z" fill="url(#paint0_linear_53_10)"/>
<defs>
<linearGradient id="paint0_linear_53_10" x1="18.5415" y1="0.125" x2="18.5415" y2="31.7917" gradientUnits="userSpaceOnUse">
<stop stop-color="#72F2EB"/>
<stop offset="1" stop-color="#28BBB3"/>
</linearGradient>
</defs>
</svg>
