<svg width="64" height="61" viewBox="0 0 64 61" fill="none" xmlns="http://www.w3.org/2000/svg">
<path d="M32 0C23.316 0 22.224 0.0378671 18.812 0.181762C15.4 0.33323 13.076 0.840648 11.04 1.59042C8.90438 2.35086 6.96997 3.5437 5.372 5.08554C3.7443 6.59908 2.48443 8.43011 1.68 10.4513C0.888 12.375 0.348 14.5788 0.192 17.7975C0.04 21.0351 0 22.0651 0 30.2974C0 38.5221 0.04 39.5521 0.192 42.7822C0.352 46.0085 0.888 48.2085 1.68 50.136C2.5 52.1278 3.592 53.8166 5.372 55.5017C7.148 57.1868 8.932 58.2244 11.036 58.9969C13.076 59.7466 15.396 60.2578 18.804 60.4055C22.22 60.5494 23.308 60.5873 32 60.5873C40.692 60.5873 41.776 60.5494 45.192 60.4055C48.596 60.254 50.928 59.7466 52.964 58.9969C55.0983 58.236 57.0313 57.0432 58.628 55.5017C60.408 53.8166 61.5 52.1278 62.32 50.136C63.108 48.2085 63.648 46.0085 63.808 42.7822C63.96 39.5521 64 38.5221 64 30.2936C64 22.0651 63.96 21.0351 63.808 17.8013C63.648 14.5788 63.108 12.375 62.32 10.4513C61.5157 8.43006 60.2558 6.599 58.628 5.08554C57.0305 3.54313 55.096 2.3502 52.96 1.59042C50.92 0.840648 48.592 0.329443 45.188 0.181762C41.772 0.0378671 40.688 0 31.992 0H32.004H32ZM29.132 5.46043H32.004C40.548 5.46043 41.56 5.48694 44.932 5.63462C48.052 5.76715 49.748 6.26321 50.876 6.67596C52.368 7.22503 53.436 7.88392 54.556 8.9442C55.676 10.0045 56.368 11.0117 56.948 12.428C57.388 13.492 57.908 15.0976 58.048 18.0512C58.204 21.2434 58.236 22.2015 58.236 30.2861C58.236 38.3707 58.204 39.3325 58.048 42.5247C57.908 45.4783 57.384 47.0801 56.948 48.148C56.435 49.4633 55.6161 50.6526 54.552 51.6279C53.432 52.6882 52.368 53.3433 50.872 53.8924C49.752 54.3089 48.056 54.8012 44.932 54.9375C41.56 55.0814 40.548 55.1155 32.004 55.1155C23.46 55.1155 22.444 55.0814 19.072 54.9375C15.952 54.8012 14.26 54.3089 13.132 53.8924C11.742 53.4074 10.4845 52.6336 9.452 51.6279C8.387 50.6511 7.56689 49.4606 7.052 48.1442C6.616 47.0801 6.092 45.4745 5.952 42.5209C5.8 39.3287 5.768 38.3707 5.768 30.2785C5.768 22.1901 5.8 21.2358 5.952 18.0436C6.096 15.09 6.616 13.4845 7.056 12.4166C7.636 11.0042 8.332 9.99311 9.452 8.93284C10.572 7.87256 11.636 7.21746 13.132 6.66839C14.26 6.25185 15.952 5.75958 19.072 5.62326C22.024 5.49451 23.168 5.45664 29.132 5.45286V5.46043ZM49.084 10.4892C48.5797 10.4892 48.0804 10.5832 47.6145 10.7659C47.1486 10.9486 46.7253 11.2163 46.3687 11.5539C46.0121 11.8915 45.7293 12.2922 45.5363 12.7333C45.3433 13.1743 45.244 13.647 45.244 14.1244C45.244 14.6018 45.3433 15.0745 45.5363 15.5156C45.7293 15.9566 46.0121 16.3573 46.3687 16.6949C46.7253 17.0325 47.1486 17.3002 47.6145 17.4829C48.0804 17.6656 48.5797 17.7596 49.084 17.7596C50.1024 17.7596 51.0792 17.3766 51.7993 16.6949C52.5194 16.0132 52.924 15.0885 52.924 14.1244C52.924 13.1603 52.5194 12.2356 51.7993 11.5539C51.0792 10.8722 50.1024 10.4892 49.084 10.4892ZM32.004 14.7379C29.8243 14.7057 27.6596 15.0843 25.6359 15.8517C23.6122 16.6191 21.7701 17.7599 20.2166 19.2078C18.6631 20.6556 17.4295 22.3816 16.5874 24.2851C15.7453 26.1887 15.3116 28.2318 15.3116 30.2955C15.3116 32.3593 15.7453 34.4024 16.5874 36.3059C17.4295 38.2095 18.6631 39.9354 20.2166 41.3833C21.7701 42.8312 23.6122 43.972 25.6359 44.7394C27.6596 45.5068 29.8243 45.8854 32.004 45.8532C36.3182 45.7895 40.4329 44.1224 43.4599 41.2117C46.487 38.301 48.1836 34.3801 48.1836 30.2955C48.1836 26.2109 46.487 22.2901 43.4599 19.3794C40.4329 16.4687 36.3182 14.8016 32.004 14.7379ZM32.004 20.1945C34.8333 20.1945 37.5468 21.2585 39.5474 23.1525C41.5481 25.0464 42.672 27.6152 42.672 30.2936C42.672 32.9721 41.5481 35.5409 39.5474 37.4348C37.5468 39.3288 34.8333 40.3928 32.004 40.3928C29.1747 40.3928 26.4612 39.3288 24.4606 37.4348C22.4599 35.5409 21.336 32.9721 21.336 30.2936C21.336 27.6152 22.4599 25.0464 24.4606 23.1525C26.4612 21.2585 29.1747 20.1945 32.004 20.1945Z" fill="white"/>
</svg>
