<svg width="64" height="61" viewBox="0 0 64 61" fill="none" xmlns="http://www.w3.org/2000/svg">
<path d="M0 4.33956C0 1.94258 2.104 0 4.7 0H59.3C61.896 0 64 1.94258 64 4.33956V56.2477C64 58.6447 61.896 60.5873 59.3 60.5873H4.7C2.104 60.5873 0 58.6447 0 56.2477V4.33956ZM19.772 50.7191V23.3602H10.168V50.7191H19.772ZM14.972 19.6227C18.32 19.6227 20.404 17.5249 20.404 14.8969C20.344 12.2121 18.324 10.1711 15.036 10.1711C11.748 10.1711 9.6 12.2159 9.6 14.8969C9.6 17.5249 11.684 19.6227 14.908 19.6227H14.972ZM34.604 50.7191V35.4398C34.604 34.6218 34.668 33.8039 34.924 33.2208C35.616 31.5887 37.196 29.896 39.852 29.896C43.328 29.896 44.716 32.4028 44.716 36.0835V50.7191H54.32V35.027C54.32 26.6205 49.584 22.7127 43.264 22.7127C38.168 22.7127 35.884 25.3633 34.604 27.2302V27.3249H34.54C34.5612 27.2933 34.5826 27.2617 34.604 27.2302V23.3602H25.004C25.124 25.9276 25.004 50.7191 25.004 50.7191H34.604Z" fill="white"/>
</svg>
