<svg width="30" height="34" viewBox="0 0 30 34" fill="none" xmlns="http://www.w3.org/2000/svg">
<path d="M8.2085 30.7499L2.87516 32.8749C2.29183 33.0971 1.76405 33.0416 1.29183 32.7083C0.819608 32.3749 0.583496 31.9166 0.583496 31.3333V23.4999C0.583496 22.8055 0.750163 22.1458 1.0835 21.5208C1.41683 20.8958 1.86127 20.4027 2.41683 20.0416L5.2085 18.1249C5.37516 20.6527 5.69461 22.8749 6.16683 24.7916C6.63905 26.7083 7.31961 28.6944 8.2085 30.7499ZM13.7085 0.666585C13.8752 0.527696 14.0696 0.416585 14.2918 0.333252C14.5141 0.249918 14.7502 0.208252 15.0002 0.208252C15.2502 0.208252 15.4863 0.249918 15.7085 0.333252C15.9307 0.416585 16.1252 0.527696 16.2918 0.666585C18.3196 2.5277 19.9307 4.91658 21.1252 7.83325C22.3196 10.7499 22.9168 13.7638 22.9168 16.8749C22.9168 18.986 22.7363 20.9652 22.3752 22.8124C22.014 24.6596 21.4168 26.5971 20.5835 28.6249C20.4168 29.0416 20.1877 29.361 19.896 29.5833C19.6043 29.8055 19.2918 29.9166 18.9585 29.9166H11.0418C10.7085 29.9166 10.396 29.8055 10.1043 29.5833C9.81266 29.361 9.5835 29.0416 9.41683 28.6249C8.61127 26.6527 8.021 24.7291 7.646 22.8541C7.271 20.9791 7.0835 18.986 7.0835 16.8749C7.0835 13.7638 7.68072 10.7499 8.87516 7.83325C10.0696 4.91658 11.6807 2.5277 13.7085 0.666585ZM15.0002 17.1666C15.7779 17.1666 16.4377 16.8958 16.9793 16.3541C17.521 15.8124 17.7918 15.1527 17.7918 14.3749C17.7918 13.5971 17.521 12.9374 16.9793 12.3958C16.4377 11.8541 15.7779 11.5833 15.0002 11.5833C14.2224 11.5833 13.5627 11.8541 13.021 12.3958C12.4793 12.9374 12.2085 13.5971 12.2085 14.3749C12.2085 15.1527 12.4793 15.8124 13.021 16.3541C13.5627 16.8958 14.2224 17.1666 15.0002 17.1666ZM21.7918 30.7499C22.6807 28.6944 23.3613 26.7083 23.8335 24.7916C24.3057 22.8749 24.6252 20.6527 24.7918 18.1249L27.5835 20.0416C28.139 20.4027 28.5835 20.8958 28.9168 21.5208C29.2502 22.1458 29.4168 22.8055 29.4168 23.4999V31.3333C29.4168 31.9166 29.1807 32.3749 28.7085 32.7083C28.2363 33.0416 27.7224 33.0971 27.1668 32.8749L21.7918 30.7499Z" fill="url(#paint0_linear_53_12)"/>
<defs>
<linearGradient id="paint0_linear_53_12" x1="15.0002" y1="0.208252" x2="15.0002" y2="33.0083" gradientUnits="userSpaceOnUse">
<stop stop-color="#72F2EB"/>
<stop offset="1" stop-color="#28BBB3"/>
</linearGradient>
</defs>
</svg>
