<svg width="266" height="34" viewBox="0 0 266 34" fill="none" xmlns="http://www.w3.org/2000/svg">
<path d="M9.17502 26.4664C7.52822 26.4664 6.0461 26.2664 4.72866 25.8665C3.41122 25.443 2.1526 24.7137 0.95279 23.6786C0.646956 23.4198 0.4117 23.1258 0.24702 22.7964C0.0823399 22.467 0 22.1377 0 21.8083C0 21.2672 0.188205 20.7967 0.564617 20.3968C0.964553 19.9733 1.45859 19.7616 2.04674 19.7616C2.49372 19.7616 2.89366 19.9027 3.24654 20.185C4.14052 20.9143 5.02273 21.4672 5.89319 21.8436C6.78716 22.22 7.88111 22.4082 9.17502 22.4082C10.0455 22.4082 10.8453 22.2788 11.5746 22.02C12.3039 21.7377 12.8921 21.3731 13.3391 20.9261C13.7861 20.4556 14.0095 19.9263 14.0095 19.3381C14.0095 18.6323 13.7978 18.0324 13.3744 17.5384C12.9509 17.0444 12.3039 16.6327 11.4335 16.3033C10.563 15.9504 9.45733 15.6799 8.11636 15.4917C6.84597 15.3035 5.72851 15.0212 4.76395 14.6447C3.7994 14.2448 2.98776 13.7508 2.32904 13.1626C1.69385 12.551 1.21157 11.8452 0.882213 11.0453C0.552854 10.2219 0.388174 9.30441 0.388174 8.29281C0.388174 6.76363 0.776348 5.45796 1.5527 4.37578C2.35257 3.29359 3.42299 2.4702 4.76395 1.90558C6.10492 1.34096 7.58703 1.05865 9.21031 1.05865C10.7395 1.05865 12.151 1.29391 13.4449 1.76442C14.7624 2.21141 15.8328 2.78779 16.6562 3.49356C17.3384 4.03465 17.6796 4.65809 17.6796 5.36386C17.6796 5.88142 17.4796 6.35193 17.0797 6.7754C16.6797 7.19886 16.2092 7.41059 15.6681 7.41059C15.3152 7.41059 14.9976 7.30473 14.7153 7.09299C14.3389 6.76363 13.8331 6.4578 13.1979 6.17549C12.5627 5.86966 11.8922 5.62264 11.1865 5.43443C10.4807 5.2227 9.82198 5.11684 9.21031 5.11684C8.1987 5.11684 7.34001 5.24623 6.63424 5.50501C5.952 5.76379 5.43443 6.11668 5.08155 6.56367C4.72866 7.01065 4.55222 7.52822 4.55222 8.11636C4.55222 8.82213 4.75219 9.41028 5.15213 9.88079C5.57559 10.3278 6.17549 10.6924 6.95184 10.9747C7.72819 11.2335 8.65745 11.4688 9.73964 11.6805C11.1512 11.9393 12.3863 12.2451 13.4449 12.598C14.5271 12.9509 15.4211 13.4096 16.1269 13.9743C16.8326 14.5153 17.362 15.2094 17.7148 16.0563C18.0677 16.8797 18.2442 17.8913 18.2442 19.0911C18.2442 20.6203 17.8207 21.9377 16.9738 23.0434C16.1269 24.1491 15.0094 24.996 13.6214 25.5842C12.2569 26.1723 10.7748 26.4664 9.17502 26.4664Z" fill="white"/>
<path d="M31.7131 6.88126C33.3599 6.88126 34.8302 7.30473 36.1242 8.15165C37.4416 8.97505 38.4767 10.116 39.2295 11.5746C40.0059 13.0332 40.3941 14.7271 40.3941 16.6562C40.3941 18.5853 40.0059 20.2909 39.2295 21.773C38.4767 23.2316 37.4534 24.3844 36.1594 25.2313C34.8891 26.0547 33.454 26.4664 31.8542 26.4664C30.9132 26.4664 30.031 26.3135 29.2076 26.0076C28.3842 25.7018 27.6549 25.3136 27.0197 24.8431C26.408 24.3726 25.9258 23.9021 25.5729 23.4316C25.2435 22.9375 25.0788 22.5258 25.0788 22.1965L26.1728 21.7377V31.0186C26.1728 31.6303 25.9728 32.1361 25.5729 32.536C25.1729 32.9595 24.6671 33.1712 24.0555 33.1712C23.4438 33.1712 22.938 32.9713 22.5381 32.5713C22.1381 32.1714 21.9382 31.6538 21.9382 31.0186V9.38675C21.9382 8.77508 22.1381 8.26928 22.5381 7.86934C22.938 7.44588 23.4438 7.23415 24.0555 7.23415C24.6671 7.23415 25.1729 7.44588 25.5729 7.86934C25.9728 8.26928 26.1728 8.77508 26.1728 9.38675V11.1159L25.5729 10.7983C25.5729 10.4925 25.7376 10.1278 26.0669 9.70435C26.3963 9.25736 26.8433 8.82213 27.4079 8.39867C27.9725 7.95168 28.6195 7.58703 29.3488 7.30472C30.1016 7.02242 30.8897 6.88126 31.7131 6.88126ZM31.1838 10.763C30.1486 10.763 29.2429 11.0218 28.4665 11.5393C27.6902 12.0569 27.0785 12.7627 26.6315 13.6567C26.2081 14.5271 25.9963 15.527 25.9963 16.6562C25.9963 17.7619 26.2081 18.7735 26.6315 19.691C27.0785 20.585 27.6902 21.2907 28.4665 21.8083C29.2429 22.3259 30.1486 22.5847 31.1838 22.5847C32.2189 22.5847 33.1129 22.3259 33.8657 21.8083C34.642 21.2907 35.2419 20.585 35.6654 19.691C36.1124 18.7735 36.3359 17.7619 36.3359 16.6562C36.3359 15.527 36.1124 14.5271 35.6654 13.6567C35.2419 12.7627 34.642 12.0569 33.8657 11.5393C33.1129 11.0218 32.2189 10.763 31.1838 10.763Z" fill="white"/>
<path d="M59.5533 6.88126C60.1649 6.88126 60.6707 7.08123 61.0707 7.48117C61.4706 7.8811 61.6706 8.39867 61.6706 9.03386V23.9609C61.6706 24.5726 61.4706 25.0901 61.0707 25.5136C60.6707 25.9135 60.1649 26.1135 59.5533 26.1135C58.9416 26.1135 58.4358 25.9135 58.0359 25.5136C57.6359 25.0901 57.4359 24.5726 57.4359 23.9609V22.2318L58.2123 22.5494C58.2123 22.8552 58.0476 23.2316 57.7183 23.6786C57.3889 24.1021 56.9419 24.5255 56.3773 24.949C55.8127 25.3725 55.1422 25.7371 54.3658 26.0429C53.613 26.3252 52.7896 26.4664 51.8956 26.4664C50.2724 26.4664 48.802 26.0547 47.4846 25.2313C46.1671 24.3844 45.1202 23.2316 44.3439 21.773C43.5911 20.2909 43.2147 18.5971 43.2147 16.6915C43.2147 14.7624 43.5911 13.0685 44.3439 11.6099C45.1202 10.1278 46.1554 8.97505 47.4493 8.15165C48.7432 7.30473 50.1783 6.88126 51.7545 6.88126C52.7661 6.88126 53.6954 7.03418 54.5423 7.34001C55.3892 7.64585 56.1185 8.03402 56.7302 8.50454C57.3654 8.97505 57.8476 9.45733 58.177 9.95137C58.5299 10.4219 58.7063 10.8218 58.7063 11.1512L57.4359 11.6099V9.03386C57.4359 8.4222 57.6359 7.91639 58.0359 7.51646C58.4358 7.09299 58.9416 6.88126 59.5533 6.88126ZM52.425 22.5847C53.4601 22.5847 54.3658 22.3259 55.1422 21.8083C55.9185 21.2907 56.5184 20.585 56.9419 19.691C57.3889 18.797 57.6124 17.7972 57.6124 16.6915C57.6124 15.5622 57.3889 14.5506 56.9419 13.6567C56.5184 12.7627 55.9185 12.0569 55.1422 11.5393C54.3658 11.0218 53.4601 10.763 52.425 10.763C51.4134 10.763 50.5194 11.0218 49.743 11.5393C48.9667 12.0569 48.355 12.7627 47.908 13.6567C47.4846 14.5506 47.2728 15.5622 47.2728 16.6915C47.2728 17.7972 47.4846 18.797 47.908 19.691C48.355 20.585 48.9667 21.2907 49.743 21.8083C50.5194 22.3259 51.4134 22.5847 52.425 22.5847Z" fill="white"/>
<path d="M68.3729 26.1135C67.7612 26.1135 67.2554 25.9135 66.8555 25.5136C66.4556 25.0901 66.2556 24.5726 66.2556 23.9609V9.38675C66.2556 8.77508 66.4556 8.26928 66.8555 7.86934C67.2554 7.44588 67.7612 7.23415 68.3729 7.23415C68.9846 7.23415 69.4904 7.44588 69.8903 7.86934C70.2903 8.26928 70.4902 8.77508 70.4902 9.38675V12.7039L70.2432 10.3395C70.502 9.77492 70.8313 9.28088 71.2313 8.85742C71.6547 8.41043 72.1253 8.04578 72.6428 7.76348C73.1604 7.45764 73.7132 7.23415 74.3014 7.09299C74.8895 6.95184 75.4777 6.88126 76.0658 6.88126C76.7716 6.88126 77.3597 7.08123 77.8302 7.48117C78.3243 7.8811 78.5713 8.35162 78.5713 8.89271C78.5713 9.66906 78.3713 10.2337 77.9714 10.5866C77.5715 10.9159 77.1362 11.0806 76.6657 11.0806C76.2187 11.0806 75.807 10.9983 75.4306 10.8336C75.0777 10.6689 74.666 10.5866 74.1955 10.5866C73.7721 10.5866 73.3368 10.6924 72.8898 10.9042C72.4664 11.0924 72.0664 11.3982 71.69 11.8217C71.3372 12.2451 71.0431 12.7744 70.8078 13.4096C70.5961 14.0213 70.4902 14.7506 70.4902 15.5975V23.9609C70.4902 24.5726 70.2903 25.0901 69.8903 25.5136C69.4904 25.9135 68.9846 26.1135 68.3729 26.1135Z" fill="white"/>
<path d="M84.0267 26.1135C83.415 26.1135 82.9092 25.9135 82.5093 25.5136C82.1093 25.0901 81.9094 24.5726 81.9094 23.9609V2.1526C81.9094 1.54093 82.1093 1.03513 82.5093 0.635192C82.9092 0.211731 83.415 0 84.0267 0C84.6384 0 85.1441 0.211731 85.5441 0.635192C85.944 1.03513 86.144 1.54093 86.144 2.1526V23.9609C86.144 24.5726 85.944 25.0901 85.5441 25.5136C85.1441 25.9135 84.6384 26.1135 84.0267 26.1135ZM95.2484 7.23415C95.7895 7.23415 96.26 7.45764 96.66 7.90463C97.0599 8.35162 97.2599 8.78684 97.2599 9.21031C97.2599 9.77492 96.9776 10.3043 96.413 10.7983L85.7911 20.5732L85.6147 15.7034L93.6957 7.90463C94.1427 7.45764 94.6603 7.23415 95.2484 7.23415ZM95.7778 26.0782C95.1661 26.0782 94.6485 25.843 94.2251 25.3725L87.6967 18.4559L90.9079 15.4917L97.2599 22.4082C97.7069 22.8787 97.9304 23.4081 97.9304 23.9962C97.9304 24.6079 97.6833 25.1137 97.1893 25.5136C96.7188 25.89 96.2483 26.0782 95.7778 26.0782Z" fill="white"/>
<path d="M106.063 23.9609C106.063 24.5726 105.851 25.0901 105.428 25.5136C105.028 25.9135 104.522 26.1135 103.91 26.1135C103.322 26.1135 102.828 25.9135 102.428 25.5136C102.028 25.0901 101.828 24.5726 101.828 23.9609V2.1526C101.828 1.54093 102.028 1.03513 102.428 0.635192C102.851 0.211731 103.369 0 103.981 0C104.592 0 105.086 0.211731 105.463 0.635192C105.863 1.03513 106.063 1.54093 106.063 2.1526V23.9609Z" fill="white"/>
<path d="M119.535 26.4664C117.535 26.4664 115.794 26.0547 114.312 25.2313C112.853 24.3844 111.724 23.2434 110.924 21.8083C110.148 20.3732 109.76 18.75 109.76 16.9385C109.76 14.8212 110.183 13.0215 111.03 11.5393C111.901 10.0337 113.03 8.88095 114.418 8.08107C115.806 7.2812 117.276 6.88126 118.829 6.88126C120.029 6.88126 121.158 7.12828 122.217 7.62232C123.299 8.11636 124.252 8.79861 125.075 9.66906C125.898 10.516 126.545 11.5041 127.016 12.6333C127.51 13.7625 127.757 14.9623 127.757 16.2327C127.733 16.7973 127.51 17.2561 127.086 17.609C126.663 17.9619 126.169 18.1383 125.604 18.1383H112.124L111.065 14.6095H124.016L123.24 15.3152V14.3624C123.193 13.6802 122.946 13.0685 122.499 12.5274C122.075 11.9863 121.534 11.5629 120.876 11.257C120.24 10.9277 119.558 10.763 118.829 10.763C118.123 10.763 117.464 10.8571 116.853 11.0453C116.241 11.2335 115.712 11.5511 115.265 11.9981C114.818 12.4451 114.465 13.045 114.206 13.7978C113.947 14.5506 113.818 15.5034 113.818 16.6562C113.818 17.9266 114.077 19.0088 114.594 19.9027C115.135 20.7732 115.818 21.4437 116.641 21.9142C117.488 22.3612 118.382 22.5847 119.323 22.5847C120.193 22.5847 120.887 22.5141 121.405 22.3729C121.923 22.2318 122.334 22.0671 122.64 21.8789C122.969 21.6672 123.263 21.4907 123.522 21.3496C123.946 21.1378 124.346 21.032 124.722 21.032C125.24 21.032 125.663 21.2084 125.992 21.5613C126.345 21.9142 126.522 22.3259 126.522 22.7964C126.522 23.4316 126.192 24.008 125.534 24.5255C124.922 25.0431 124.063 25.5018 122.958 25.9018C121.852 26.2782 120.711 26.4664 119.535 26.4664Z" fill="white"/>
<path d="M139.749 26.4664C138.103 26.4664 136.621 26.2664 135.303 25.8665C133.986 25.443 132.727 24.7137 131.527 23.6786C131.221 23.4198 130.986 23.1258 130.821 22.7964C130.657 22.467 130.574 22.1377 130.574 21.8083C130.574 21.2672 130.763 20.7967 131.139 20.3968C131.539 19.9733 132.033 19.7616 132.621 19.7616C133.068 19.7616 133.468 19.9027 133.821 20.185C134.715 20.9143 135.597 21.4672 136.468 21.8436C137.362 22.22 138.456 22.4082 139.749 22.4082C140.62 22.4082 141.42 22.2788 142.149 22.02C142.878 21.7377 143.467 21.3731 143.914 20.9261C144.361 20.4556 144.584 19.9263 144.584 19.3381C144.584 18.6323 144.372 18.0324 143.949 17.5384C143.525 17.0444 142.878 16.6327 142.008 16.3033C141.137 15.9504 140.032 15.6799 138.691 15.4917C137.42 15.3035 136.303 15.0212 135.338 14.6447C134.374 14.2448 133.562 13.7508 132.904 13.1626C132.268 12.551 131.786 11.8452 131.457 11.0453C131.127 10.2219 130.963 9.30441 130.963 8.29281C130.963 6.76363 131.351 5.45796 132.127 4.37578C132.927 3.29359 133.997 2.4702 135.338 1.90558C136.679 1.34096 138.161 1.05865 139.785 1.05865C141.314 1.05865 142.725 1.29391 144.019 1.76442C145.337 2.21141 146.407 2.78779 147.231 3.49356C147.913 4.03465 148.254 4.65809 148.254 5.36386C148.254 5.88142 148.054 6.35193 147.654 6.7754C147.254 7.19886 146.784 7.41059 146.243 7.41059C145.89 7.41059 145.572 7.30473 145.29 7.09299C144.913 6.76363 144.408 6.4578 143.772 6.17549C143.137 5.86966 142.467 5.62264 141.761 5.43443C141.055 5.2227 140.396 5.11684 139.785 5.11684C138.773 5.11684 137.914 5.24623 137.209 5.50501C136.526 5.76379 136.009 6.11668 135.656 6.56367C135.303 7.01065 135.127 7.52822 135.127 8.11636C135.127 8.82213 135.327 9.41028 135.727 9.88079C136.15 10.3278 136.75 10.6924 137.526 10.9747C138.303 11.2335 139.232 11.4688 140.314 11.6805C141.726 11.9393 142.961 12.2451 144.019 12.598C145.102 12.9509 145.996 13.4096 146.701 13.9743C147.407 14.5153 147.936 15.2094 148.289 16.0563C148.642 16.8797 148.819 17.8913 148.819 19.0911C148.819 20.6203 148.395 21.9377 147.548 23.0434C146.701 24.1491 145.584 24.996 144.196 25.5842C142.831 26.1723 141.349 26.4664 139.749 26.4664Z" fill="white"/>
<path d="M170.827 16.6915C170.827 18.6206 170.392 20.3262 169.522 21.8083C168.675 23.2669 167.522 24.4079 166.063 25.2313C164.628 26.0547 163.017 26.4664 161.229 26.4664C159.441 26.4664 157.818 26.0547 156.359 25.2313C154.924 24.4079 153.771 23.2669 152.901 21.8083C152.054 20.3262 151.63 18.6206 151.63 16.6915C151.63 14.7624 152.054 13.0685 152.901 11.6099C153.771 10.1278 154.924 8.97505 156.359 8.15165C157.818 7.30473 159.441 6.88126 161.229 6.88126C163.017 6.88126 164.628 7.30473 166.063 8.15165C167.522 8.97505 168.675 10.1278 169.522 11.6099C170.392 13.0685 170.827 14.7624 170.827 16.6915ZM166.593 16.6915C166.593 15.4917 166.346 14.4565 165.852 13.5861C165.381 12.6921 164.734 11.9981 163.911 11.5041C163.111 11.01 162.217 10.763 161.229 10.763C160.241 10.763 159.335 11.01 158.512 11.5041C157.712 11.9981 157.065 12.6921 156.571 13.5861C156.1 14.4565 155.865 15.4917 155.865 16.6915C155.865 17.8678 156.1 18.9029 156.571 19.7969C157.065 20.6673 157.712 21.3496 158.512 21.8436C159.335 22.3376 160.241 22.5847 161.229 22.5847C162.217 22.5847 163.111 22.3376 163.911 21.8436C164.734 21.3496 165.381 20.6673 165.852 19.7969C166.346 18.9029 166.593 17.8678 166.593 16.6915Z" fill="white"/>
<path d="M176.651 26.1135C176.039 26.1135 175.533 25.9135 175.133 25.5136C174.733 25.0901 174.533 24.5726 174.533 23.9609V9.38675C174.533 8.77508 174.733 8.26928 175.133 7.86934C175.533 7.44588 176.039 7.23415 176.651 7.23415C177.262 7.23415 177.768 7.44588 178.168 7.86934C178.568 8.26928 178.768 8.77508 178.768 9.38675V12.7039L178.521 10.3395C178.78 9.77492 179.109 9.28088 179.509 8.85742C179.933 8.41043 180.403 8.04578 180.921 7.76348C181.438 7.45764 181.991 7.23415 182.579 7.09299C183.167 6.95184 183.756 6.88126 184.344 6.88126C185.049 6.88126 185.638 7.08123 186.108 7.48117C186.602 7.8811 186.849 8.35162 186.849 8.89271C186.849 9.66906 186.649 10.2337 186.249 10.5866C185.849 10.9159 185.414 11.0806 184.944 11.0806C184.497 11.0806 184.085 10.9983 183.709 10.8336C183.356 10.6689 182.944 10.5866 182.473 10.5866C182.05 10.5866 181.615 10.6924 181.168 10.9042C180.744 11.0924 180.344 11.3982 179.968 11.8217C179.615 12.2451 179.321 12.7744 179.086 13.4096C178.874 14.0213 178.768 14.7506 178.768 15.5975V23.9609C178.768 24.5726 178.568 25.0901 178.168 25.5136C177.768 25.9135 177.262 26.1135 176.651 26.1135Z" fill="white"/>
<path d="M191.952 26.1135C191.34 26.1135 190.834 25.9135 190.434 25.5136C190.034 25.0901 189.834 24.5726 189.834 23.9609V9.38675C189.834 8.77508 190.034 8.26928 190.434 7.86934C190.834 7.44588 191.34 7.23415 191.952 7.23415C192.563 7.23415 193.069 7.44588 193.469 7.86934C193.869 8.26928 194.069 8.77508 194.069 9.38675V12.7039L193.822 10.3395C194.081 9.77492 194.41 9.28088 194.81 8.85742C195.234 8.41043 195.704 8.04578 196.222 7.76348C196.739 7.45764 197.292 7.23415 197.88 7.09299C198.468 6.95184 199.056 6.88126 199.645 6.88126C200.35 6.88126 200.939 7.08123 201.409 7.48117C201.903 7.8811 202.15 8.35162 202.15 8.89271C202.15 9.66906 201.95 10.2337 201.55 10.5866C201.15 10.9159 200.715 11.0806 200.244 11.0806C199.798 11.0806 199.386 10.9983 199.009 10.8336C198.657 10.6689 198.245 10.5866 197.774 10.5866C197.351 10.5866 196.916 10.6924 196.469 10.9042C196.045 11.0924 195.645 11.3982 195.269 11.8217C194.916 12.2451 194.622 12.7744 194.387 13.4096C194.175 14.0213 194.069 14.7506 194.069 15.5975V23.9609C194.069 24.5726 193.869 25.0901 193.469 25.5136C193.069 25.9135 192.563 26.1135 191.952 26.1135Z" fill="white"/>
<path d="M209.123 23.9609C209.123 24.5726 208.923 25.0901 208.523 25.5136C208.123 25.9135 207.617 26.1135 207.006 26.1135C206.394 26.1135 205.888 25.9135 205.488 25.5136C205.088 25.0901 204.888 24.5726 204.888 23.9609V9.38675C204.888 8.77508 205.088 8.26928 205.488 7.86934C205.888 7.44588 206.394 7.23415 207.006 7.23415C207.617 7.23415 208.123 7.44588 208.523 7.86934C208.923 8.26928 209.123 8.77508 209.123 9.38675V23.9609ZM206.97 4.94039C206.17 4.94039 205.606 4.811 205.276 4.55222C204.947 4.29344 204.782 3.83469 204.782 3.17597V2.50549C204.782 1.82324 204.959 1.36449 205.312 1.12923C205.688 0.87045 206.253 0.741058 207.006 0.741058C207.829 0.741058 208.405 0.87045 208.735 1.12923C209.064 1.38802 209.229 1.84677 209.229 2.50549V3.17597C209.229 3.85821 209.052 4.32873 208.699 4.58751C208.347 4.82277 207.77 4.94039 206.97 4.94039Z" fill="white"/>
<path d="M212.381 23.1846C212.146 22.8552 212.04 22.4317 212.063 21.9142C212.087 21.3966 212.393 20.9496 212.981 20.5732C213.357 20.338 213.757 20.2439 214.181 20.2909C214.604 20.3144 215.016 20.5262 215.416 20.9261C216.098 21.6083 216.816 22.1377 217.568 22.5141C218.321 22.8905 219.262 23.0787 220.391 23.0787C220.744 23.0552 221.133 23.0081 221.556 22.9375C221.979 22.8434 222.344 22.6552 222.65 22.3729C222.979 22.0671 223.144 21.6083 223.144 20.9967C223.144 20.4791 222.968 20.0674 222.615 19.7616C222.262 19.4557 221.791 19.197 221.203 18.9852C220.639 18.7735 220.003 18.5735 219.298 18.3853C218.568 18.1736 217.815 17.9383 217.039 17.6796C216.286 17.4208 215.592 17.0914 214.957 16.6915C214.322 16.268 213.804 15.7152 213.404 15.0329C213.004 14.3507 212.804 13.492 212.804 12.4569C212.804 11.2806 213.134 10.2807 213.793 9.45733C214.451 8.63393 215.298 7.99873 216.333 7.55175C217.392 7.10476 218.498 6.88126 219.65 6.88126C220.38 6.88126 221.144 6.97537 221.944 7.16357C222.744 7.32825 223.509 7.61056 224.238 8.0105C224.967 8.38691 225.579 8.89271 226.073 9.5279C226.332 9.88079 226.485 10.3043 226.532 10.7983C226.579 11.2923 226.355 11.7393 225.861 12.1393C225.508 12.4216 225.097 12.551 224.626 12.5274C224.156 12.4804 223.767 12.3157 223.462 12.0334C223.062 11.5158 222.521 11.1041 221.838 10.7983C221.18 10.4925 220.415 10.3395 219.545 10.3395C219.192 10.3395 218.804 10.3866 218.38 10.4807C217.98 10.5513 217.627 10.7277 217.321 11.01C217.016 11.2688 216.863 11.6923 216.863 12.2804C216.863 12.8215 217.039 13.2567 217.392 13.5861C217.745 13.8919 218.215 14.1507 218.804 14.3624C219.415 14.5506 220.062 14.7388 220.744 14.927C221.45 15.1153 222.168 15.3387 222.897 15.5975C223.626 15.8563 224.297 16.1974 224.908 16.6209C225.52 17.0444 226.014 17.5972 226.391 18.2795C226.767 18.9382 226.955 19.7851 226.955 20.8202C226.955 22.02 226.602 23.0434 225.897 23.8903C225.191 24.7373 224.309 25.3842 223.25 25.8312C222.191 26.2547 221.109 26.4664 220.003 26.4664C218.615 26.4664 217.227 26.2311 215.839 25.7606C214.451 25.2666 213.299 24.4079 212.381 23.1846Z" fill="white"/>
<path d="M248.814 16.6915C248.814 18.6206 248.378 20.3262 247.508 21.8083C246.661 23.2669 245.508 24.4079 244.05 25.2313C242.615 26.0547 241.003 26.4664 239.215 26.4664C237.427 26.4664 235.804 26.0547 234.345 25.2313C232.91 24.4079 231.758 23.2669 230.887 21.8083C230.04 20.3262 229.617 18.6206 229.617 16.6915C229.617 14.7624 230.04 13.0685 230.887 11.6099C231.758 10.1278 232.91 8.97505 234.345 8.15165C235.804 7.30473 237.427 6.88126 239.215 6.88126C241.003 6.88126 242.615 7.30473 244.05 8.15165C245.508 8.97505 246.661 10.1278 247.508 11.6099C248.378 13.0685 248.814 14.7624 248.814 16.6915ZM244.579 16.6915C244.579 15.4917 244.332 14.4565 243.838 13.5861C243.367 12.6921 242.721 11.9981 241.897 11.5041C241.097 11.01 240.203 10.763 239.215 10.763C238.227 10.763 237.321 11.01 236.498 11.5041C235.698 11.9981 235.051 12.6921 234.557 13.5861C234.087 14.4565 233.851 15.4917 233.851 16.6915C233.851 17.8678 234.087 18.9029 234.557 19.7969C235.051 20.6673 235.698 21.3496 236.498 21.8436C237.321 22.3376 238.227 22.5847 239.215 22.5847C240.203 22.5847 241.097 22.3376 241.897 21.8436C242.721 21.3496 243.367 20.6673 243.838 19.7969C244.332 18.9029 244.579 17.8678 244.579 16.6915Z" fill="white"/>
<path d="M251.426 23.1846C251.191 22.8552 251.085 22.4317 251.108 21.9142C251.132 21.3966 251.438 20.9496 252.026 20.5732C252.402 20.338 252.802 20.2439 253.226 20.2909C253.649 20.3144 254.061 20.5262 254.461 20.9261C255.143 21.6083 255.86 22.1377 256.613 22.5141C257.366 22.8905 258.307 23.0787 259.436 23.0787C259.789 23.0552 260.177 23.0081 260.601 22.9375C261.024 22.8434 261.389 22.6552 261.695 22.3729C262.024 22.0671 262.189 21.6083 262.189 20.9967C262.189 20.4791 262.012 20.0674 261.659 19.7616C261.307 19.4557 260.836 19.197 260.248 18.9852C259.683 18.7735 259.048 18.5735 258.342 18.3853C257.613 18.1736 256.86 17.9383 256.084 17.6796C255.331 17.4208 254.637 17.0914 254.002 16.6915C253.367 16.268 252.849 15.7152 252.449 15.0329C252.049 14.3507 251.849 13.492 251.849 12.4569C251.849 11.2806 252.179 10.2807 252.837 9.45733C253.496 8.63393 254.343 7.99873 255.378 7.55175C256.437 7.10476 257.543 6.88126 258.695 6.88126C259.425 6.88126 260.189 6.97537 260.989 7.16357C261.789 7.32825 262.553 7.61056 263.283 8.0105C264.012 8.38691 264.624 8.89271 265.118 9.5279C265.377 9.88079 265.529 10.3043 265.577 10.7983C265.624 11.2923 265.4 11.7393 264.906 12.1393C264.553 12.4216 264.141 12.551 263.671 12.5274C263.2 12.4804 262.812 12.3157 262.506 12.0334C262.106 11.5158 261.565 11.1041 260.883 10.7983C260.224 10.4925 259.46 10.3395 258.589 10.3395C258.237 10.3395 257.848 10.3866 257.425 10.4807C257.025 10.5513 256.672 10.7277 256.366 11.01C256.06 11.2688 255.907 11.6923 255.907 12.2804C255.907 12.8215 256.084 13.2567 256.437 13.5861C256.79 13.8919 257.26 14.1507 257.848 14.3624C258.46 14.5506 259.107 14.7388 259.789 14.927C260.495 15.1153 261.213 15.3387 261.942 15.5975C262.671 15.8563 263.342 16.1974 263.953 16.6209C264.565 17.0444 265.059 17.5972 265.435 18.2795C265.812 18.9382 266 19.7851 266 20.8202C266 22.02 265.647 23.0434 264.941 23.8903C264.236 24.7373 263.353 25.3842 262.295 25.8312C261.236 26.2547 260.154 26.4664 259.048 26.4664C257.66 26.4664 256.272 26.2311 254.884 25.7606C253.496 25.2666 252.343 24.4079 251.426 23.1846Z" fill="white"/>
</svg>
