<svg width="38" height="37" viewBox="0 0 38 37" fill="none" xmlns="http://www.w3.org/2000/svg">
<path d="M18.8318 30.05L9.48182 35.7C9.08182 35.9333 8.69015 36.0333 8.30682 36C7.92349 35.9667 7.58182 35.8333 7.28182 35.6C6.94848 35.4 6.71515 35.125 6.58182 34.775C6.44848 34.425 6.41515 34.0167 6.48182 33.55L8.98182 22.9L0.731818 15.7C0.365152 15.4 0.140151 15.0667 0.0568181 14.7C-0.0265152 14.3333 -0.0181818 13.9667 0.0818182 13.6C0.181818 13.2333 0.390152 12.925 0.706818 12.675C1.02348 12.425 1.39848 12.2833 1.83182 12.25L12.7318 11.3L16.9818 1.2C17.1485 0.8 17.4068 0.5 17.7568 0.3C18.1068 0.0999997 18.4652 0 18.8318 0C19.1985 0 19.5568 0.0999997 19.9068 0.3C20.2568 0.5 20.5152 0.8 20.6818 1.2L24.9318 11.3L35.8318 12.25C36.2652 12.2833 36.6402 12.425 36.9568 12.675C37.2735 12.925 37.4818 13.2333 37.5818 13.6C37.6818 13.9667 37.6902 14.3333 37.6068 14.7C37.5235 15.0667 37.2985 15.4 36.9318 15.7L28.6818 22.9L31.1818 33.55C31.2485 34.0167 31.2152 34.425 31.0818 34.775C30.9485 35.125 30.7152 35.4 30.3818 35.6C30.0818 35.8333 29.7402 35.9667 29.3568 36C28.9735 36.0333 28.5818 35.9333 28.1818 35.7L18.8318 30.05Z" fill="url(#paint0_linear_34_361)"/>
<defs>
<linearGradient id="paint0_linear_34_361" x1="18.8318" y1="0" x2="18.8318" y2="36.0062" gradientUnits="userSpaceOnUse">
<stop stop-color="#72F2EB"/>
<stop offset="1" stop-color="#28BBB3"/>
</linearGradient>
</defs>
</svg>
