<svg width="30" height="40" viewBox="0 0 30 40" fill="none" xmlns="http://www.w3.org/2000/svg">
<path d="M12.3002 15.35C11.5669 15.35 10.9502 15.1 10.4502 14.6C9.9502 14.1 9.7002 13.4833 9.7002 12.75C9.7002 12.0167 9.9502 11.3917 10.4502 10.875C10.9502 10.3583 11.5669 10.1 12.3002 10.1C13.0335 10.1 13.6585 10.3583 14.1752 10.875C14.6919 11.3917 14.9502 12.0167 14.9502 12.75C14.9502 13.4833 14.6919 14.1 14.1752 14.6C13.6585 15.1 13.0335 15.35 12.3002 15.35ZM2.5002 39.3C2.0002 39.3 1.5752 39.125 1.2252 38.775C0.875196 38.425 0.700195 38 0.700195 37.5C0.700195 37 0.875196 36.575 1.2252 36.225C1.5752 35.875 2.0002 35.7 2.5002 35.7H11.1002V31.1H10.3502C7.61686 31.0333 5.3252 30.0417 3.4752 28.125C1.6252 26.2083 0.700195 23.8833 0.700195 21.15C0.700195 19.1833 1.24186 17.375 2.3252 15.725C3.40853 14.075 4.93353 12.85 6.9002 12.05C6.8002 12.5833 6.8252 13.2083 6.9752 13.925C7.1252 14.6417 7.36686 15.2167 7.7002 15.65C6.6002 16.1833 5.75853 16.9417 5.1752 17.925C4.59186 18.9083 4.3002 19.9833 4.3002 21.15C4.3002 22.9167 4.91686 24.4167 6.1502 25.65C7.38353 26.8833 8.88353 27.5 10.6502 27.5H26.5002C27.0002 27.5 27.4252 27.675 27.7752 28.025C28.1252 28.375 28.3002 28.8 28.3002 29.3C28.3002 29.8 28.1252 30.225 27.7752 30.575C27.4252 30.925 27.0002 31.1 26.5002 31.1H16.7002V35.7H27.5002C28.0002 35.7 28.4252 35.875 28.7752 36.225C29.1252 36.575 29.3002 37 29.3002 37.5C29.3002 38 29.1252 38.425 28.7752 38.775C28.4252 39.125 28.0002 39.3 27.5002 39.3H2.5002ZM22.0002 20.6C21.4335 20.8 20.9252 20.8083 20.4752 20.625C20.0252 20.4417 19.6335 20.1167 19.3002 19.65L19.2002 19.5L18.4502 19.75C17.8835 19.9167 17.3919 19.8833 16.9752 19.65C16.5585 19.4167 16.2669 19.1 16.1002 18.7L15.4502 16.9C16.1502 16.5667 16.7085 16 17.1252 15.2C17.5419 14.4 17.7502 13.5833 17.7502 12.75C17.7502 11.3167 17.1835 10.0333 16.0502 8.89999C14.9169 7.76665 13.5335 7.28332 11.9002 7.44999L11.4502 6.09999C11.3835 5.59999 11.4335 5.14165 11.6002 4.72499C11.7669 4.30832 12.1002 3.98332 12.6002 3.74999L13.1502 3.49999L13.1002 3.34999C13.0669 2.81665 13.1502 2.33332 13.3502 1.89999C13.5502 1.46665 13.9002 1.14999 14.4002 0.949988C14.9335 0.749988 15.4335 0.749988 15.9002 0.949988C16.3669 1.14999 16.7502 1.46665 17.0502 1.89999L17.1502 2.09999L17.7502 1.89999C18.2502 1.76665 18.7169 1.84165 19.1502 2.12499C19.5835 2.40832 19.8835 2.73332 20.0502 3.09999L24.8002 15.35C24.9669 15.7833 24.9585 16.25 24.7752 16.75C24.5919 17.25 24.2502 17.6333 23.7502 17.9L23.0502 18.15L23.1502 18.3C23.3169 18.7667 23.2835 19.2167 23.0502 19.65C22.8169 20.0833 22.4669 20.4 22.0002 20.6Z" fill="url(#paint0_linear_34_363)"/>
<defs>
<linearGradient id="paint0_linear_34_363" x1="15.0002" y1="0.799988" x2="15.0002" y2="39.3" gradientUnits="userSpaceOnUse">
<stop stop-color="#72F2EB"/>
<stop offset="1" stop-color="#28BBB3"/>
</linearGradient>
</defs>
</svg>
